<?xml version="1.0" encoding="UTF-8" standalone="no"?>
<!-- Uploaded to: SVG Repo, www.svgrepo.com, Generator: SVG Repo Mixer Tools -->

<svg
   height="800px"
   width="800px"
   version="1.1"
   id="Layer_1"
   viewBox="0 0 512 512"
   xml:space="preserve"
   sodipodi:docname="wheat-barley-svgrepo-com.svg"
   inkscape:version="1.3.2 (091e20e, 2023-11-25)"
   xmlns:inkscape="http://www.inkscape.org/namespaces/inkscape"
   xmlns:sodipodi="http://sodipodi.sourceforge.net/DTD/sodipodi-0.dtd"
   xmlns="http://www.w3.org/2000/svg"
   xmlns:svg="http://www.w3.org/2000/svg"><defs
   id="defs10" /><sodipodi:namedview
   id="namedview10"
   pagecolor="#ffffff"
   bordercolor="#000000"
   borderopacity="0.25"
   inkscape:showpageshadow="2"
   inkscape:pageopacity="0.0"
   inkscape:pagecheckerboard="0"
   inkscape:deskcolor="#d1d1d1"
   inkscape:zoom="0.5"
   inkscape:cx="14"
   inkscape:cy="440"
   inkscape:window-width="1392"
   inkscape:window-height="943"
   inkscape:window-x="0"
   inkscape:window-y="25"
   inkscape:window-maximized="0"
   inkscape:current-layer="Layer_1" />



<g
   id="g11"
   transform="rotate(13.738898,403.53574,-183.50961)"><path
     style="fill:#fff082;stroke-width:0.54"
     d="m 505.10645,19.70214 c 0.0221,-0.84726 -0.034,-1.67293 -0.0616,-2.50615 -0.83322,-0.0275 -1.65888,-0.0842 -2.50614,-0.0621 -23.29669,0.59994 -42.66812,19.97137 -43.26752,43.26753 -0.0221,0.84726 0.0346,1.67292 0.0621,2.50614 0.83322,0.0275 1.65888,0.0837 2.50614,0.0621 23.29561,-0.59994 42.66758,-19.97137 43.26698,-43.26752 z"
     id="path1" /><g
     id="g5"
     transform="matrix(0.54000029,0,0,0.54000029,232.96034,12.79985)">
	<path
   style="fill:#ffdc64"
   d="m 322.462,310.47 c 1.943,1.943 3.728,3.983 5.465,6.047 -1.738,2.064 -3.523,4.103 -5.465,6.047 -36.734,36.734 -96.291,36.734 -133.025,0 -1.943,-1.943 -3.728,-3.983 -5.465,-6.047 1.738,-2.064 3.523,-4.103 5.465,-6.047 36.735,-36.735 96.291,-36.735 133.025,0 z"
   id="path2" />
	<path
   style="fill:#ffdc64"
   d="m 395.022,225.817 c 1.943,1.943 3.749,3.971 5.465,6.047 -1.717,2.076 -3.522,4.103 -5.465,6.047 -33.394,33.394 -87.537,33.394 -120.931,0 -1.943,-1.943 -3.749,-3.971 -5.465,-6.047 1.717,-2.076 3.522,-4.103 5.465,-6.047 33.394,-33.395 87.536,-33.394 120.931,0 z"
   id="path3" />
	<path
   style="fill:#ffdc64"
   d="m 461.533,147.212 c 1.939,1.939 3.742,3.961 5.432,6.047 -1.689,2.084 -3.492,4.107 -5.432,6.047 -30.055,30.055 -78.784,30.055 -108.838,0 -1.939,-1.939 -3.742,-3.961 -5.432,-6.047 1.689,-2.084 3.492,-4.107 5.432,-6.047 30.056,-30.055 78.783,-30.055 108.838,0 z"
   id="path4" />
	<path
   style="fill:#ffdc64"
   d="m 249.903,395.122 c 1.943,1.943 3.71,3.992 5.465,6.047 -1.755,2.054 -3.522,4.103 -5.465,6.047 -40.073,40.073 -105.044,40.073 -145.117,0 -1.943,-1.943 -3.71,-3.992 -5.465,-6.047 1.755,-2.054 3.522,-4.103 5.465,-6.047 40.073,-40.074 105.044,-40.074 145.117,0 z"
   id="path5" />
</g><g
     id="g9"
     transform="matrix(0.54000029,0,0,0.54000029,232.96034,12.79985)">
	<path
   style="fill:#fff082"
   d="m 201.53,189.537 c -1.943,-1.943 -3.983,-3.728 -6.047,-5.465 -2.064,1.738 -4.103,3.523 -6.047,5.465 -36.734,36.734 -36.734,96.291 0,133.025 1.943,1.943 3.983,3.728 6.047,5.465 2.064,-1.738 4.103,-3.523 6.047,-5.465 36.735,-36.734 36.735,-96.29 0,-133.025 z"
   id="path6" />
	<path
   style="fill:#fff082"
   d="m 286.183,116.978 c -1.943,-1.943 -3.971,-3.749 -6.047,-5.465 -2.076,1.717 -4.103,3.522 -6.047,5.465 -33.394,33.394 -33.394,87.537 0,120.931 1.943,1.943 3.971,3.749 6.047,5.465 2.076,-1.717 4.103,-3.522 6.047,-5.465 33.394,-33.394 33.394,-87.536 0,-120.931 z"
   id="path7" />
	<path
   style="fill:#fff082"
   d="m 364.788,50.467 c -1.939,-1.939 -3.961,-3.742 -6.047,-5.432 -2.084,1.689 -4.107,3.492 -6.047,5.432 -30.054,30.055 -30.055,78.784 0,108.838 1.939,1.939 3.961,3.742 6.047,5.432 2.084,-1.689 4.107,-3.492 6.047,-5.432 30.055,-30.056 30.055,-78.783 0,-108.838 z"
   id="path8" />
	<path
   style="fill:#fff082"
   d="m 116.878,262.097 c -1.943,-1.943 -3.992,-3.71 -6.047,-5.465 -2.054,1.755 -4.103,3.522 -6.047,5.465 -40.073,40.073 -40.073,105.044 0,145.117 1.943,1.943 3.992,3.71 6.047,5.465 2.054,-1.755 4.103,-3.522 6.047,-5.465 40.074,-40.073 40.074,-105.044 0,-145.117 z"
   id="path9" />
</g><path
     style="stroke-width:0.54"
     d="m 327.36905,252.80187 c 6.39486,-0.45255 32.31694,-5.76177 43.60025,-17.04454 l 9.7956,-9.7956 c 1.69075,-1.69074 1.69075,-4.43125 0,-6.12199 -1.69074,-1.69074 -4.43178,-1.69074 -6.12198,0 l -3.4722,3.47328 c -0.0675,-0.0686 -0.1323,-0.13878 -0.20088,-0.20736 -12.89521,-12.8952 -30.87344,-19.00423 -48.55467,-17.15634 l 12.96163,-12.96163 c 9.97219,8.54334 22.52611,13.20355 35.7977,13.20355 14.72365,0 28.56655,-5.73373 38.97776,-16.14493 l 9.79561,-9.79507 c 1.69074,-1.69074 1.69074,-4.43178 0,-6.12198 -1.69021,-1.69074 -4.43125,-1.69128 -6.12199,0 l -3.4722,3.4722 c -0.068,-0.0691 -0.13176,-0.13878 -0.20088,-0.2079 -11.51065,-11.51065 -27.41473,-17.15743 -43.21298,-15.96781 l 14.16798,-14.16799 c 9.09145,7.67665 20.4779,11.86921 32.5145,11.86921 13.49029,0 26.17328,-5.25366 35.71238,-14.79277 v 0 0 l 9.79561,-9.7956 c 1.69074,-1.69074 1.69074,-4.43179 0,-6.12199 -1.69074,-1.69074 -4.43179,-1.69074 -6.12199,0 l -3.47166,3.47167 c -0.067,-0.068 -0.13392,-0.13986 -0.20142,-0.20682 -6.831,-6.83101 -15.40783,-11.53657 -24.80221,-13.60639 -4.3254,-0.9531 -8.73073,-1.32408 -13.10689,-1.13454 l 12.14083,-12.14083 c 8.45316,7.00056 18.84223,10.50679 29.23831,10.50625 11.74879,-5.4e-4 23.50244,-4.47391 32.447,-13.41901 v 0 0 l 9.79507,-9.79561 c 1.69074,-1.69074 1.69074,-4.43178 0,-6.12198 -1.69291,-1.69236 -4.43395,-1.69236 -6.12469,-0.002 v 3.8e-4 l -3.47166,3.47166 c -0.0675,-0.068 -0.13392,-0.13986 -0.20142,-0.20682 -8.83116,-8.8317 -20.59939,-13.52862 -32.66408,-13.45626 l 8.47909,-8.47909 c 0.12744,0.002 0.25002,0.006 0.38016,0.006 0.16578,0 0.33426,-0.002 0.50436,-0.006 25.52635,-0.65664 46.8272,-21.95857 47.48438,-47.48276 0.02,-0.76896 -0.0108,-1.49419 -0.0383,-2.13517 -0.009,-0.20844 -0.0178,-0.41796 -0.0243,-0.62694 -0.0756,-2.27772 -1.90404,-4.10724 -4.18176,-4.18338 l -0.62478,-0.0248 c -0.64152,-0.027 -1.36728,-0.0578 -2.1384,-0.0383 -25.52581,0.65718 -46.82667,21.95857 -47.48439,47.48493 -0.008,0.30402 -0.003,0.59508 0.001,0.88344 l -8.5239,8.52444 c 0.0664,-11.83788 -4.40046,-23.69575 -13.41253,-32.70782 -0.0675,-0.0675 -0.13878,-0.13392 -0.20736,-0.20142 l 3.47166,-3.47166 c 1.69074,-1.69074 1.69074,-4.43178 0,-6.12198 -1.69074,-1.69128 -4.43178,-1.69128 -6.12198,0 l -9.7956,9.7956 c -16.85881,16.85881 -17.82541,43.67577 -2.91277,61.68532 l -12.16566,12.1662 c 0.59616,-13.66362 -4.30597,-27.52435 -14.71663,-37.93448 -0.0675,-0.0675 -0.13878,-0.13446 -0.20682,-0.20142 l 3.47166,-3.47166 c 1.69074,-1.69074 1.69074,-4.43124 0,-6.12198 -1.69074,-1.69074 -4.43178,-1.69074 -6.12198,0 l -9.79561,9.7956 c -18.65971,18.66025 -19.62523,48.40131 -2.92086,68.22418 l -14.15287,14.15287 c 0.1053,-1.39644 0.1593,-2.80206 0.1593,-4.2174 0,-14.72365 -5.73372,-28.56656 -16.14493,-38.97722 -0.0686,-0.0686 -0.13878,-0.13284 -0.20736,-0.20088 l 3.47329,-3.47329 c 1.69074,-1.69074 1.69074,-4.43178 0,-6.12198 -1.69074,-1.69074 -4.43179,-1.69074 -6.12199,0 l -9.7956,9.79561 c -10.41175,10.4112 -16.14493,24.25411 -16.14493,38.97722 0,13.27158 4.6602,25.82605 13.20355,35.7977 l -12.94971,12.94966 c 0.21654,-2.079 0.3294,-4.18068 0.3294,-6.30018 0,-15.95755 -6.21432,-30.9593 -17.49817,-42.24314 -0.0686,-0.0686 -0.13878,-0.13284 -0.20736,-0.20088 l 3.4722,-3.47221 c 1.69074,-1.69074 1.69074,-4.43178 0,-6.12198 -1.69074,-1.69074 -4.43178,-1.69074 -6.12198,0 l -9.79183,9.79615 c -11.28384,11.28384 -16.13944,39.69495 -16.13944,47.67372 0,7.97878 9.05171,28.51111 19.00814,38.46745 9.95644,9.95635 31.62033,15.84004 38.01518,15.38749 z M 500.67737,21.56244 c -1.4958,19.45297 -17.52571,35.48288 -36.97868,36.97922 1.49634,-19.45297 17.52571,-35.48342 36.97868,-36.97922 z m -74.20036,21.55033 c 0.0675,-0.0675 0.13554,-0.135 0.20412,-0.2025 0.0686,0.067 0.13608,0.13446 0.20412,0.2025 14.51575,14.51575 14.51575,38.13482 0,52.65057 -0.0664,0.0659 -0.13284,0.1323 -0.1998,0.19818 -0.0686,-0.0675 -0.1404,-0.13014 -0.20844,-0.19818 -14.51629,-14.51575 -14.51629,-38.13482 0,-52.65057 z m -42.44726,35.9165 c 0.0675,-0.0675 0.13554,-0.135 0.20412,-0.2025 0.0686,0.0675 0.13662,0.135 0.20412,0.2025 16.3161,16.31611 16.3161,42.86468 0,59.18133 -0.0664,0.0659 -0.13284,0.1323 -0.20034,0.19818 -0.068,-0.0675 -0.1404,-0.13068 -0.20844,-0.19818 -16.31557,-16.31665 -16.31557,-42.86468 5.4e-4,-59.18133 z m -45.71211,39.18188 c 0.068,-0.0675 0.13554,-0.135 0.20412,-0.20196 0.068,0.067 0.13554,0.13392 0.20358,0.20142 0,0 0,5.4e-4 5.4e-4,5.4e-4 8.77663,8.77554 13.60909,20.44441 13.60909,32.85578 0,5.59494 -0.9909,11.03544 -2.87388,16.13142 -0.0173,0.0454 -0.0367,0.0902 -0.0524,0.13608 -2.29662,6.15547 -5.89843,11.80333 -10.68337,16.58773 -0.0664,0.0664 -0.13284,0.1323 -0.1998,0.19818 -0.068,-0.0675 -0.1404,-0.13068 -0.2079,-0.19818 -8.77662,-8.77662 -13.60909,-20.44441 -13.60909,-32.85577 0,-12.41029 4.83301,-24.07916 13.60909,-32.85524 z m -45.7121,39.18188 c 0.0675,-0.0675 0.13554,-0.13446 0.20412,-0.20196 0.0686,0.067 0.13608,0.13446 0.20412,0.20196 9.64818,9.64872 14.96178,22.47643 14.96178,36.12062 0,13.64527 -5.3136,26.47297 -14.96178,36.12062 -0.0664,0.0664 -0.13284,0.1323 -0.20034,0.19818 -0.068,-0.0675 -0.13986,-0.13014 -0.2079,-0.19818 -9.64819,-9.64819 -14.96179,-22.47589 -14.96179,-36.12062 5.4e-4,-13.64419 5.31414,-26.47244 14.96179,-36.12062 z m 72.24178,71.83354 c 0.0675,0.0675 0.135,0.13554 0.20196,0.20412 -0.067,0.0686 -0.13392,0.13608 -0.20196,0.20412 -9.64819,9.64872 -22.4759,14.96179 -36.12062,14.96179 -10.61425,0 -20.72684,-3.22813 -29.23994,-9.19891 5.27148,-5.35896 9.41221,-11.53765 12.30283,-18.24769 18.46315,-6.4719 39.19376,-1.7874 53.05773,12.07657 z m 39.18188,-45.71211 c 0.0675,0.068 0.135,0.13554 0.20196,0.20412 -0.067,0.0686 -0.13446,0.13608 -0.20196,0.20412 -8.77663,8.77663 -20.44441,13.60909 -32.85578,13.60909 -9.37603,0 -18.32545,-2.7621 -25.92757,-7.8948 5.01336,-5.11543 8.91648,-11.03491 11.5803,-17.46901 16.52239,-5.34655 34.85918,-0.99738 47.20305,11.34648 z m 39.18134,-45.7121 c 0.0675,0.0675 0.135,0.13554 0.2025,0.20412 -0.0675,0.068 -0.135,0.13608 -0.2025,0.20412 -7.90345,7.90344 -18.41293,12.25639 -29.5904,12.25639 -8.1378,0 -15.91543,-2.31769 -22.59685,-6.62203 4.78764,-4.91562 8.37594,-10.56834 10.75789,-16.59529 14.75334,-4.36158 30.46735,-0.4104 41.42936,10.55269 z m -9.65197,-36.497 c 4.47498,-4.63212 7.78033,-9.97813 9.91873,-15.66973 12.76236,-3.30318 26.25427,0.32508 35.65028,9.72001 0.0675,0.0675 0.135,0.13554 0.2025,0.20412 -0.0675,0.068 -0.135,0.13608 -0.2025,0.20412 -12.34009,12.33954 -31.25684,14.18202 -45.56901,5.54148 z"
     id="path11" /><path
     style="stroke-width:0.54"
     d="m 288.84508,233.71072 c 0,0 -26.96811,33.51844 -55.94799,127.57486 -28.97988,94.05641 -5.73565,185.79091 -5.73565,185.79091 -0.50393,2.33736 0.98197,4.64007 3.31935,5.14398 1.16786,0.25216 2.32862,0.006 3.25924,-0.59413 0.93061,-0.60051 1.63271,-1.55614 1.88429,-2.7249 0,0 -22.89818,-91.19721 5.73424,-185.7916 28.63243,-94.5944 55.94659,-127.57557 55.94659,-127.57557"
     id="path10" /></g>
</svg>
